<?xml version="1.0" encoding="UTF-8"?>
<svg id="a" data-name="Layer 1" xmlns="http://www.w3.org/2000/svg" viewBox="0 0 92.22 81.45">
  <defs>
    <style>
      .b {
        stroke-linecap: round;
        stroke-linejoin: round;
      }

      .b, .c {
        stroke-width: 4px;
      }

      .b, .c, .d, .e {
        fill: none;
        stroke: #000;
      }

      .c, .e {
        fill-rule: evenodd;
      }

      .d, .e {
        stroke-width: 5px;
      }
    </style>
  </defs>
  <path class="c" d="m53.6,70.32v5.81c0,1.83-1.48,3.3-3.3,3.3s-3.3-1.48-3.3-3.3v-5.81m-4.52,0v5.81c0,1.83-1.48,3.3-3.3,3.3s-3.3-1.48-3.3-3.3v-5.81m-4.51.32v5.5c0,1.83-1.48,3.3-3.3,3.3s-3.3-1.48-3.3-3.3v-5.5m39.42-1.94l1.08,5.71c.34,1.79-.84,3.52-2.63,3.86s-3.52-.84-3.86-2.63l-1.08-5.71m15.8-5.72l2.81,5.09c.88,1.6.3,3.61-1.29,4.49s-3.61.3-4.49-1.29l-2.81-5.09m13.01-10.13l4.14,4.08c1.3,1.28,1.32,3.37.04,4.67s-3.37,1.32-4.67.04l-4.14-4.08"/>
  <path class="e" d="m21.89,36.55v32.58c0,.66.53,1.2,1.2,1.2h34.59"/>
  <path class="b" d="m21.64,67.47H2v-4.83h14.73v-4.83H2v-4.82h14.73v-4.83H2v-4.83h14.73v-4.82H2v-14.88"/>
  <path class="d" d="m22.02,40.31v-3.96C22.02,17.66,37.17,2.5,55.87,2.5s33.85,15.16,33.85,33.85-15.16,33.85-33.85,33.85h-4"/>
  <line class="d" x1="22.02" y1="36.35" x2="89.72" y2="36.35"/>
  <line class="d" x1="55.87" y1="36.35" x2="55.87" y2="70.2"/>
  <circle cx="55.87" cy="36.35" r="10.67"/>
</svg>